<svg xmlns="http://www.w3.org/2000/svg" xmlns:xlink="http://www.w3.org/1999/xlink" width="400" zoomAndPan="magnify" viewBox="0 0 300 299.999988" height="400" preserveAspectRatio="xMidYMid meet" version="1.0"><defs><clipPath id="id1"><path d="M 212 211 L 265.875 211 L 265.875 300 L 212 300 Z M 212 211 " clip-rule="nonzero"/></clipPath><clipPath id="id2"><path d="M 34.125 211 L 88 211 L 88 300 L 34.125 300 Z M 34.125 211 " clip-rule="nonzero"/></clipPath></defs><rect x="-30" width="360" fill="rgb(100%, 98.429871%, 96.469116%)" y="-29.999999" height="359.999986" fill-opacity="1"/><rect x="-30" width="360" fill="rgb(100%, 100%, 100%)" y="-29.999999" height="359.999986" fill-opacity="1"/><rect x="-30" width="360" fill="rgb(100%, 98.429871%, 96.469116%)" y="-29.999999" height="359.999986" fill-opacity="1"/><path fill="rgb(94.119263%, 63.139343%, 46.269226%)" d="M 253.367188 299.941406 C 254.636719 277.8125 255.519531 262.195312 255.519531 262.195312 L 226.621094 286.722656 C 226.761719 289.160156 226.960938 293.789062 227.183594 299.941406 L 253.367188 299.941406 " fill-opacity="1" fill-rule="nonzero"/><g clip-path="url(#id1)"><path fill="rgb(22.749329%, 67.059326%, 24.308777%)" d="M 261.480469 299.941406 C 264.578125 296.777344 265.890625 294.109375 265.890625 294.109375 C 265.890625 294.109375 256.167969 244.328125 249.558594 230.71875 C 242.945312 217.109375 226.730469 211.691406 226.730469 211.691406 C 203.671875 212.664062 215.046875 276.460938 220.023438 299.941406 L 261.480469 299.941406 " fill-opacity="1" fill-rule="nonzero"/></g><path fill="rgb(21.179199%, 55.688477%, 24.308777%)" d="M 233.007812 299.941406 L 220.023438 299.941406 C 216.625 283.914062 210.257812 249.121094 213.882812 228.324219 C 240.738281 231.941406 237.042969 276.046875 233.007812 299.941406 " fill-opacity="1" fill-rule="nonzero"/><path fill="rgb(94.119263%, 63.139343%, 46.269226%)" d="M 73.703125 299.941406 C 73.925781 293.789062 74.121094 289.160156 74.265625 286.722656 L 45.367188 262.195312 C 45.367188 262.195312 46.246094 277.8125 47.519531 299.941406 L 73.703125 299.941406 " fill-opacity="1" fill-rule="nonzero"/><g clip-path="url(#id2)"><path fill="rgb(22.749329%, 67.059326%, 24.308777%)" d="M 38.519531 299.941406 L 79.976562 299.941406 C 84.957031 276.460938 96.332031 212.664062 73.269531 211.691406 C 73.269531 211.691406 57.054688 217.109375 50.445312 230.71875 C 43.832031 244.328125 34.105469 294.109375 34.105469 294.109375 C 34.105469 294.109375 35.425781 296.777344 38.519531 299.941406 " fill-opacity="1" fill-rule="nonzero"/></g><path fill="rgb(21.179199%, 55.688477%, 24.308777%)" d="M 79.976562 299.941406 L 66.144531 299.941406 C 59.058594 275.21875 49.355469 226.886719 78.636719 218.273438 C 80.003906 217.875 81.285156 217.648438 82.507812 217.566406 C 92.496094 234.03125 84.070312 280.628906 79.976562 299.941406 " fill-opacity="1" fill-rule="nonzero"/><path fill="rgb(22.749329%, 67.059326%, 24.308777%)" d="M 220.914062 299.941406 C 226.390625 257.230469 230.910156 217.859375 229.722656 212.441406 C 229.722656 212.441406 182.613281 196.878906 174.449219 192.992188 L 150.359375 196.785156 L 126.28125 192.992188 C 118.113281 196.878906 71.003906 212.441406 71.003906 212.441406 C 69.820312 217.859375 74.339844 257.230469 79.8125 299.941406 L 220.914062 299.941406 " fill-opacity="1" fill-rule="nonzero"/><path fill="rgb(85.488892%, 54.508972%, 39.608765%)" d="M 171.960938 158.769531 L 150.875 164.894531 L 129.78125 158.769531 C 129.78125 158.769531 128.117188 187.9375 123.164062 194.648438 C 123.164062 194.648438 137.164062 208.644531 150.875 209.230469 C 164.582031 208.644531 178.585938 194.648438 178.585938 194.648438 C 173.621094 187.9375 171.960938 158.769531 171.960938 158.769531 " fill-opacity="1" fill-rule="nonzero"/><path fill="rgb(73.329163%, 54.119873%, 43.919373%)" d="M 176.460938 189.945312 C 174.742188 184.488281 173.597656 176.335938 172.890625 169.738281 C 173.597656 176.335938 174.742188 184.488281 176.460938 189.945312 M 127.355469 180.808594 C 127.355469 180.808594 127.355469 180.808594 127.351562 180.804688 C 127.992188 177.074219 128.488281 173.15625 128.855469 169.675781 C 128.488281 173.15625 127.992188 177.078125 127.355469 180.808594 " fill-opacity="1" fill-rule="nonzero"/><path fill="rgb(69.018555%, 40.388489%, 28.62854%)" d="M 158.109375 192.011719 C 146.621094 192.007812 137.085938 188.867188 127.355469 180.808594 C 127.992188 177.078125 128.488281 173.15625 128.855469 169.675781 C 136.878906 175.257812 144.914062 178.675781 150.875 178.675781 C 150.882812 178.675781 150.890625 178.675781 150.902344 178.675781 C 150.90625 178.675781 150.90625 178.675781 150.910156 178.675781 C 150.914062 178.675781 150.921875 178.675781 150.929688 178.675781 C 150.933594 178.675781 150.933594 178.675781 150.9375 178.675781 C 150.945312 178.675781 150.953125 178.675781 150.964844 178.675781 C 150.964844 178.675781 150.96875 178.675781 150.96875 178.675781 C 150.976562 178.675781 150.984375 178.675781 150.992188 178.675781 C 150.996094 178.675781 150.996094 178.675781 150.996094 178.675781 C 151.007812 178.675781 151.015625 178.675781 151.019531 178.675781 C 151.023438 178.675781 151.023438 178.675781 151.027344 178.675781 C 151.035156 178.675781 151.046875 178.675781 151.054688 178.675781 C 151.058594 178.675781 151.058594 178.675781 151.058594 178.675781 C 151.066406 178.675781 151.074219 178.675781 151.082031 178.675781 C 151.082031 178.675781 151.085938 178.675781 151.089844 178.675781 C 151.097656 178.675781 151.105469 178.675781 151.117188 178.675781 C 151.117188 178.675781 151.121094 178.675781 151.121094 178.671875 C 151.125 178.671875 151.136719 178.671875 151.144531 178.671875 C 151.144531 178.671875 151.148438 178.671875 151.152344 178.671875 C 151.160156 178.671875 151.164062 178.671875 151.171875 178.671875 C 151.175781 178.671875 151.175781 178.671875 151.179688 178.671875 C 151.1875 178.671875 151.199219 178.671875 151.207031 178.671875 C 151.207031 178.671875 151.207031 178.671875 151.210938 178.671875 C 151.21875 178.671875 151.230469 178.671875 151.234375 178.671875 C 151.238281 178.671875 151.238281 178.671875 151.242188 178.671875 C 151.261719 178.671875 151.277344 178.671875 151.296875 178.667969 C 151.300781 178.667969 151.300781 178.667969 151.304688 178.667969 C 151.3125 178.667969 151.320312 178.667969 151.328125 178.667969 C 151.332031 178.667969 151.332031 178.667969 151.335938 178.667969 C 151.34375 178.667969 151.351562 178.667969 151.359375 178.667969 C 151.363281 178.667969 151.363281 178.667969 151.363281 178.667969 C 151.375 178.664062 151.378906 178.664062 151.390625 178.664062 C 151.390625 178.664062 151.394531 178.664062 151.398438 178.664062 C 151.402344 178.664062 151.414062 178.664062 151.417969 178.664062 C 151.421875 178.664062 151.421875 178.664062 151.421875 178.664062 C 151.433594 178.664062 151.441406 178.664062 151.453125 178.664062 C 151.457031 178.664062 151.457031 178.664062 151.457031 178.664062 C 151.464844 178.664062 151.476562 178.660156 151.484375 178.660156 C 151.484375 178.660156 151.484375 178.660156 151.488281 178.660156 C 151.503906 178.660156 151.527344 178.660156 151.546875 178.660156 C 151.558594 178.65625 151.570312 178.65625 151.578125 178.65625 C 151.597656 178.65625 151.621094 178.65625 151.640625 178.652344 C 151.671875 178.652344 151.703125 178.652344 151.734375 178.652344 C 157.574219 178.347656 165.238281 175.019531 172.890625 169.738281 C 173.597656 176.335938 174.742188 184.488281 176.460938 189.945312 C 176.464844 189.960938 176.46875 189.976562 176.472656 189.992188 C 169.726562 191.269531 163.6875 192.011719 158.109375 192.011719 " fill-opacity="1" fill-rule="nonzero"/><path fill="rgb(81.959534%, 47.839355%, 31.369019%)" d="M 198.246094 104.101562 C 197.539062 113.582031 201.65625 121.621094 207.449219 122.054688 C 213.238281 122.484375 218.515625 115.148438 219.214844 105.664062 C 219.921875 96.183594 215.800781 88.148438 210.011719 87.714844 C 204.222656 87.28125 198.949219 94.621094 198.246094 104.101562 " fill-opacity="1" fill-rule="nonzero"/><path fill="rgb(72.938538%, 39.219666%, 28.62854%)" d="M 208.621094 116.757812 C 207.355469 116.757812 206.148438 115.523438 205.5625 111.515625 C 205.5625 111.515625 212.644531 109.539062 206.480469 106.78125 L 205.355469 106.355469 C 205.355469 105.410156 205.359375 104.476562 205.359375 103.558594 C 205.359375 101.699219 205.335938 99.800781 205.285156 97.882812 C 205.417969 97.527344 205.574219 97.191406 205.753906 96.878906 C 205.753906 96.886719 205.753906 96.890625 205.753906 96.890625 C 205.753906 96.890625 205.757812 96.878906 205.761719 96.863281 C 206.539062 95.503906 207.75 94.550781 209.621094 94.550781 C 209.699219 94.550781 209.777344 94.554688 209.855469 94.558594 C 215.628906 94.789062 215.183594 101.742188 215.25 101.742188 C 215.261719 101.742188 215.289062 101.53125 215.371094 101.03125 C 215.371094 101.03125 215.328125 103.703125 213.871094 104.042969 C 213.871094 104.042969 214.820312 98.554688 209.855469 97.386719 C 209.855469 97.386719 213.183594 99.285156 212.613281 107.378906 C 212.613281 107.378906 212.484375 103.515625 207.667969 102.382812 C 207.667969 102.382812 214.894531 108.472656 208.730469 112.484375 C 208.730469 112.484375 208.847656 114.71875 210.425781 114.71875 C 211 114.71875 211.765625 114.421875 212.792969 113.617188 C 212.792969 113.617188 210.640625 116.753906 208.621094 116.757812 " fill-opacity="1" fill-rule="nonzero"/><path fill="rgb(60.389709%, 30.979919%, 21.179199%)" d="M 215.390625 102.585938 C 215.40625 102.058594 215.359375 101.535156 215.289062 101.011719 C 215.210938 100.496094 215.117188 99.984375 214.949219 99.492188 C 214.875 99.242188 214.785156 98.996094 214.679688 98.761719 C 214.585938 98.519531 214.464844 98.292969 214.335938 98.070312 C 214.226562 97.84375 214.078125 97.632812 213.921875 97.429688 C 213.785156 97.210938 213.613281 97.027344 213.441406 96.84375 L 213.183594 96.5625 L 212.890625 96.320312 C 212.699219 96.164062 212.507812 95.992188 212.285156 95.875 C 212.066406 95.75 211.867188 95.597656 211.628906 95.5 L 210.933594 95.210938 C 210.699219 95.117188 210.445312 95.074219 210.203125 95.003906 L 209.832031 94.910156 C 209.753906 94.886719 209.585938 94.875 209.46875 94.855469 C 209.195312 94.804688 208.988281 94.832031 208.753906 94.832031 C 208.519531 94.859375 208.289062 94.894531 208.070312 94.972656 C 207.195312 95.265625 206.523438 96.007812 206.085938 96.890625 C 205.628906 97.769531 205.359375 98.765625 205.167969 99.773438 C 204.976562 100.78125 204.875 101.816406 204.824219 102.847656 C 204.800781 103.367188 204.789062 103.886719 204.792969 104.40625 L 204.8125 105.980469 L 204.460938 105.519531 C 205.3125 105.777344 206.121094 106.085938 206.925781 106.472656 C 207.324219 106.667969 207.714844 106.882812 208.09375 107.144531 C 208.472656 107.402344 208.847656 107.703125 209.136719 108.15625 C 209.289062 108.371094 209.386719 108.664062 209.417969 108.964844 C 209.417969 109.265625 209.34375 109.585938 209.195312 109.816406 C 209.054688 110.054688 208.878906 110.246094 208.695312 110.40625 C 208.515625 110.582031 208.316406 110.695312 208.125 110.835938 C 207.335938 111.308594 206.519531 111.621094 205.6875 111.890625 L 205.949219 111.46875 C 206.074219 112.472656 206.3125 113.511719 206.707031 114.453125 C 206.90625 114.917969 207.152344 115.367188 207.472656 115.734375 C 207.640625 115.910156 207.816406 116.074219 208.019531 116.183594 C 208.214844 116.3125 208.4375 116.363281 208.664062 116.394531 C 208.898438 116.417969 209.132812 116.386719 209.371094 116.332031 C 209.605469 116.253906 209.835938 116.164062 210.0625 116.039062 C 210.507812 115.792969 210.925781 115.476562 211.308594 115.121094 C 211.699219 114.765625 212.0625 114.378906 212.40625 113.976562 C 212.761719 113.582031 213.089844 113.160156 213.421875 112.742188 C 212.859375 113.648438 212.246094 114.53125 211.503906 115.3125 C 211.132812 115.707031 210.722656 116.074219 210.257812 116.375 C 210.027344 116.53125 209.769531 116.652344 209.503906 116.757812 C 209.230469 116.84375 208.9375 116.910156 208.632812 116.890625 C 208.332031 116.871094 208.027344 116.804688 207.761719 116.652344 C 207.492188 116.523438 207.265625 116.328125 207.050781 116.125 C 206.652344 115.703125 206.359375 115.214844 206.121094 114.71875 C 205.882812 114.214844 205.695312 113.699219 205.539062 113.171875 C 205.386719 112.640625 205.261719 112.121094 205.167969 111.566406 L 205.121094 111.261719 L 205.433594 111.144531 C 206.214844 110.84375 206.996094 110.535156 207.667969 110.113281 C 207.816406 109.996094 207.992188 109.894531 208.113281 109.765625 C 208.253906 109.648438 208.367188 109.511719 208.433594 109.382812 C 208.527344 109.253906 208.527344 109.132812 208.539062 109.011719 C 208.515625 108.898438 208.488281 108.765625 208.386719 108.632812 C 208.210938 108.367188 207.910156 108.113281 207.582031 107.894531 C 207.253906 107.675781 206.894531 107.484375 206.523438 107.3125 C 205.777344 106.964844 204.980469 106.675781 204.199219 106.445312 L 203.859375 106.351562 L 203.847656 105.980469 C 203.824219 105.488281 203.804688 104.925781 203.816406 104.398438 C 203.824219 103.867188 203.84375 103.332031 203.875 102.796875 C 203.945312 101.726562 204.0625 100.660156 204.277344 99.597656 C 204.503906 98.542969 204.796875 97.480469 205.324219 96.488281 C 205.589844 96 205.902344 95.515625 206.332031 95.113281 C 206.746094 94.707031 207.273438 94.394531 207.84375 94.230469 C 208.132812 94.140625 208.421875 94.109375 208.710938 94.089844 C 209.003906 94.09375 209.335938 94.097656 209.578125 94.152344 C 209.714844 94.183594 209.8125 94.191406 209.984375 94.234375 L 210.382812 94.355469 C 210.640625 94.441406 210.910156 94.503906 211.160156 94.613281 L 211.90625 94.964844 C 212.152344 95.082031 212.371094 95.257812 212.605469 95.40625 C 212.84375 95.542969 213.039062 95.738281 213.242188 95.921875 L 213.546875 96.199219 L 213.8125 96.515625 C 213.992188 96.722656 214.160156 96.941406 214.289062 97.183594 C 214.4375 97.414062 214.578125 97.644531 214.679688 97.894531 C 214.796875 98.140625 214.90625 98.386719 214.984375 98.648438 C 215.074219 98.898438 215.152344 99.15625 215.207031 99.417969 C 215.457031 100.457031 215.519531 101.539062 215.390625 102.585938 " fill-opacity="1" fill-rule="nonzero"/><path fill="rgb(60.389709%, 30.979919%, 21.179199%)" d="M 212.777344 106.0625 C 212.777344 106.0625 212.804688 105.210938 212.632812 103.960938 C 212.597656 103.644531 212.523438 103.308594 212.464844 102.953125 C 212.367188 102.605469 212.300781 102.230469 212.171875 101.859375 C 212.050781 101.488281 211.921875 101.109375 211.742188 100.742188 C 211.59375 100.359375 211.359375 100.023438 211.15625 99.671875 C 210.914062 99.351562 210.671875 99.023438 210.386719 98.757812 C 210.085938 98.507812 209.820312 98.234375 209.476562 98.085938 C 209.324219 97.996094 209.164062 97.910156 209.011719 97.824219 C 208.84375 97.769531 208.679688 97.71875 208.519531 97.671875 C 208.359375 97.621094 208.207031 97.570312 208.058594 97.527344 C 207.902344 97.511719 207.75 97.5 207.601562 97.484375 C 207.308594 97.464844 207.046875 97.402344 206.804688 97.429688 C 206.5625 97.453125 206.351562 97.46875 206.179688 97.484375 C 205.839844 97.511719 205.640625 97.527344 205.640625 97.527344 L 205.503906 96.371094 C 205.503906 96.371094 205.730469 96.371094 206.128906 96.371094 C 206.324219 96.371094 206.5625 96.371094 206.839844 96.371094 C 207.113281 96.367188 207.425781 96.464844 207.761719 96.511719 C 207.929688 96.546875 208.105469 96.578125 208.285156 96.617188 C 208.457031 96.683594 208.636719 96.757812 208.820312 96.828125 C 209.003906 96.902344 209.195312 96.980469 209.382812 97.0625 C 209.554688 97.175781 209.730469 97.292969 209.910156 97.414062 C 210.285156 97.628906 210.574219 97.96875 210.890625 98.28125 C 211.1875 98.609375 211.425781 98.992188 211.65625 99.367188 C 211.84375 99.765625 212.0625 100.152344 212.183594 100.5625 C 212.335938 100.964844 212.4375 101.371094 212.527344 101.765625 C 212.632812 102.15625 212.664062 102.546875 212.726562 102.910156 C 212.757812 103.277344 212.804688 103.621094 212.816406 103.9375 C 212.875 105.21875 212.777344 106.0625 212.777344 106.0625 " fill-opacity="1" fill-rule="nonzero"/><path fill="rgb(81.959534%, 47.839355%, 31.369019%)" d="M 103.710938 104.101562 C 104.421875 113.582031 100.296875 121.621094 94.507812 122.054688 C 88.71875 122.484375 83.445312 115.148438 82.742188 105.664062 C 82.03125 96.183594 86.152344 88.148438 91.945312 87.714844 C 97.738281 87.28125 103 94.621094 103.710938 104.101562 " fill-opacity="1" fill-rule="nonzero"/><path fill="rgb(72.938538%, 39.219666%, 28.62854%)" d="M 93.132812 116.398438 C 92.953125 116.398438 92.773438 116.375 92.585938 116.332031 C 92.351562 116.253906 92.117188 116.164062 91.898438 116.039062 C 91.449219 115.796875 91.03125 115.476562 90.648438 115.121094 C 90.253906 114.765625 89.890625 114.382812 89.546875 113.976562 C 89.484375 113.910156 89.425781 113.839844 89.367188 113.765625 C 90.289062 114.460938 90.992188 114.71875 91.527344 114.71875 C 93.105469 114.71875 93.222656 112.484375 93.222656 112.484375 C 87.0625 108.472656 94.28125 102.382812 94.28125 102.382812 C 89.46875 103.515625 89.339844 107.378906 89.339844 107.378906 C 89.242188 105.964844 89.261719 104.742188 89.359375 103.683594 C 89.398438 103.449219 89.449219 103.207031 89.492188 102.953125 C 89.589844 102.605469 89.652344 102.230469 89.78125 101.859375 C 89.902344 101.488281 90.035156 101.109375 90.210938 100.742188 C 90.355469 100.363281 90.59375 100.027344 90.800781 99.671875 C 91.035156 99.351562 91.28125 99.023438 91.5625 98.757812 C 91.867188 98.511719 92.136719 98.234375 92.476562 98.085938 C 92.632812 97.996094 92.789062 97.910156 92.941406 97.824219 C 93.109375 97.773438 93.277344 97.71875 93.433594 97.675781 C 93.59375 97.625 93.746094 97.574219 93.898438 97.527344 C 94.050781 97.511719 94.207031 97.5 94.351562 97.484375 C 94.597656 97.46875 94.816406 97.421875 95.023438 97.421875 C 95.066406 97.421875 95.109375 97.425781 95.148438 97.429688 C 95.386719 97.453125 95.597656 97.46875 95.773438 97.484375 C 95.9375 97.5 96.0625 97.507812 96.15625 97.515625 C 96.265625 97.785156 96.359375 98.066406 96.445312 98.351562 C 96.402344 100.109375 96.382812 101.851562 96.382812 103.558594 C 96.382812 104.085938 96.382812 104.617188 96.382812 105.148438 C 96.382812 105.398438 96.382812 105.648438 96.382812 105.894531 C 95.929688 106.066406 95.480469 106.257812 95.035156 106.472656 C 94.636719 106.667969 94.242188 106.882812 93.863281 107.144531 C 93.488281 107.40625 93.113281 107.703125 92.816406 108.15625 C 92.667969 108.371094 92.570312 108.664062 92.539062 108.96875 C 92.539062 109.269531 92.613281 109.589844 92.769531 109.816406 C 92.902344 110.058594 93.085938 110.246094 93.265625 110.40625 C 93.449219 110.582031 93.644531 110.695312 93.835938 110.835938 C 94.523438 111.25 95.238281 111.542969 95.964844 111.789062 C 95.828125 112.691406 95.601562 113.613281 95.25 114.453125 C 95.050781 114.917969 94.804688 115.367188 94.484375 115.734375 C 94.320312 115.910156 94.144531 116.074219 93.941406 116.183594 C 93.742188 116.308594 93.515625 116.363281 93.289062 116.394531 C 93.242188 116.398438 93.1875 116.398438 93.132812 116.398438 M 88.085938 104.042969 C 86.980469 103.789062 86.6875 102.191406 86.613281 101.433594 C 86.617188 101.386719 86.621094 101.339844 86.625 101.292969 C 86.675781 101.605469 86.695312 101.742188 86.703125 101.742188 C 86.726562 101.742188 86.699219 101.082031 86.816406 100.160156 C 86.871094 99.933594 86.929688 99.710938 87.003906 99.492188 C 87.078125 99.242188 87.167969 98.996094 87.277344 98.761719 C 87.363281 98.523438 87.488281 98.292969 87.617188 98.070312 C 87.726562 97.84375 87.878906 97.632812 88.03125 97.429688 C 88.167969 97.210938 88.339844 97.027344 88.515625 96.84375 L 88.769531 96.5625 L 89.058594 96.320312 C 89.257812 96.160156 89.441406 95.992188 89.667969 95.875 C 89.886719 95.75 90.089844 95.597656 90.324219 95.5 L 91.019531 95.210938 C 91.257812 95.117188 91.507812 95.074219 91.753906 95.003906 L 92.117188 94.910156 C 92.199219 94.886719 92.367188 94.875 92.484375 94.855469 C 92.617188 94.832031 92.730469 94.824219 92.835938 94.824219 C 92.894531 94.824219 92.945312 94.828125 93 94.828125 C 93.050781 94.832031 93.105469 94.832031 93.160156 94.832031 C 93.175781 94.832031 93.1875 94.832031 93.199219 94.832031 C 93.429688 94.859375 93.664062 94.894531 93.878906 94.972656 C 94.578125 95.207031 95.144531 95.722656 95.570312 96.371094 C 95.429688 96.371094 95.277344 96.371094 95.113281 96.371094 C 95.109375 96.371094 95.105469 96.371094 95.101562 96.371094 C 94.832031 96.371094 94.519531 96.464844 94.191406 96.511719 C 94.023438 96.546875 93.847656 96.578125 93.664062 96.617188 C 93.496094 96.683594 93.3125 96.757812 93.132812 96.828125 C 92.949219 96.902344 92.761719 96.980469 92.570312 97.0625 C 92.410156 97.167969 92.246094 97.277344 92.078125 97.390625 C 87.140625 98.566406 88.085938 104.042969 88.085938 104.042969 M 88.429688 96.175781 C 88.78125 95.789062 89.195312 95.441406 89.699219 95.171875 C 89.585938 95.25 89.46875 95.332031 89.351562 95.40625 C 89.113281 95.542969 88.910156 95.738281 88.710938 95.921875 L 88.429688 96.175781 " fill-opacity="1" fill-rule="nonzero"/><path fill="rgb(60.389709%, 30.979919%, 21.179199%)" d="M 86.5625 102.585938 C 86.429688 101.539062 86.492188 100.457031 86.746094 99.417969 C 86.800781 99.15625 86.875 98.898438 86.96875 98.648438 C 87.046875 98.386719 87.15625 98.140625 87.273438 97.894531 C 87.375 97.644531 87.515625 97.414062 87.660156 97.183594 C 87.792969 96.941406 87.960938 96.722656 88.140625 96.515625 L 88.40625 96.199219 L 88.710938 95.921875 C 88.910156 95.738281 89.113281 95.542969 89.351562 95.40625 C 89.582031 95.257812 89.800781 95.082031 90.046875 94.964844 L 90.792969 94.613281 C 91.046875 94.503906 91.3125 94.441406 91.574219 94.355469 L 91.96875 94.234375 C 92.140625 94.191406 92.242188 94.183594 92.378906 94.152344 C 92.621094 94.09375 92.949219 94.09375 93.242188 94.089844 C 93.53125 94.109375 93.824219 94.140625 94.109375 94.230469 C 94.679688 94.394531 95.210938 94.707031 95.625 95.113281 C 96.050781 95.515625 96.359375 96 96.628906 96.488281 C 97.160156 97.480469 97.453125 98.542969 97.675781 99.597656 C 97.890625 100.660156 98.015625 101.726562 98.078125 102.796875 C 98.113281 103.332031 98.132812 103.867188 98.140625 104.398438 C 98.152344 104.925781 98.132812 105.488281 98.109375 105.980469 L 98.097656 106.351562 L 97.761719 106.445312 C 96.976562 106.675781 96.175781 106.964844 95.433594 107.3125 C 95.066406 107.484375 94.703125 107.675781 94.375 107.894531 C 94.046875 108.113281 93.746094 108.367188 93.574219 108.632812 C 93.472656 108.765625 93.449219 108.898438 93.421875 109.011719 C 93.429688 109.132812 93.433594 109.253906 93.523438 109.386719 C 93.59375 109.511719 93.707031 109.648438 93.84375 109.765625 C 93.96875 109.894531 94.144531 109.996094 94.296875 110.113281 C 94.964844 110.535156 95.746094 110.84375 96.527344 111.144531 L 96.839844 111.261719 L 96.792969 111.566406 C 96.699219 112.125 96.574219 112.640625 96.421875 113.171875 C 96.265625 113.699219 96.078125 114.214844 95.839844 114.71875 C 95.597656 115.214844 95.304688 115.703125 94.902344 116.125 C 94.691406 116.328125 94.46875 116.523438 94.195312 116.652344 C 93.933594 116.804688 93.625 116.871094 93.324219 116.890625 C 93.023438 116.910156 92.730469 116.84375 92.457031 116.757812 C 92.183594 116.652344 91.929688 116.53125 91.695312 116.375 C 91.234375 116.074219 90.820312 115.710938 90.457031 115.316406 C 89.714844 114.53125 89.097656 113.648438 88.53125 112.742188 C 88.867188 113.160156 89.191406 113.582031 89.546875 113.976562 C 89.890625 114.382812 90.253906 114.765625 90.648438 115.121094 C 91.03125 115.476562 91.449219 115.796875 91.898438 116.039062 C 92.117188 116.164062 92.351562 116.253906 92.585938 116.332031 C 92.824219 116.386719 93.0625 116.417969 93.289062 116.394531 C 93.515625 116.363281 93.742188 116.308594 93.941406 116.183594 C 94.144531 116.074219 94.320312 115.910156 94.484375 115.734375 C 94.804688 115.367188 95.050781 114.917969 95.25 114.453125 C 95.644531 113.511719 95.882812 112.472656 96.011719 111.46875 L 96.277344 111.890625 C 95.445312 111.621094 94.621094 111.308594 93.835938 110.835938 C 93.644531 110.695312 93.449219 110.582031 93.265625 110.40625 C 93.085938 110.246094 92.902344 110.058594 92.769531 109.816406 C 92.613281 109.589844 92.539062 109.269531 92.539062 108.96875 C 92.570312 108.664062 92.667969 108.371094 92.816406 108.15625 C 93.113281 107.703125 93.488281 107.40625 93.863281 107.144531 C 94.242188 106.882812 94.636719 106.667969 95.035156 106.472656 C 95.835938 106.085938 96.644531 105.777344 97.496094 105.519531 L 97.144531 105.980469 L 97.167969 104.40625 C 97.167969 103.886719 97.152344 103.367188 97.128906 102.847656 C 97.078125 101.816406 96.976562 100.78125 96.785156 99.773438 C 96.59375 98.765625 96.324219 97.769531 95.871094 96.890625 C 95.425781 96.007812 94.757812 95.265625 93.878906 94.972656 C 93.664062 94.894531 93.429688 94.859375 93.199219 94.832031 C 93.132812 94.832031 93.066406 94.832031 93 94.828125 C 92.839844 94.824219 92.679688 94.816406 92.484375 94.855469 C 92.367188 94.875 92.199219 94.886719 92.117188 94.910156 L 91.753906 95.003906 C 91.507812 95.074219 91.257812 95.117188 91.019531 95.210938 L 90.324219 95.5 C 90.089844 95.597656 89.886719 95.75 89.667969 95.875 C 89.441406 95.992188 89.257812 96.160156 89.058594 96.320312 L 88.769531 96.5625 L 88.515625 96.84375 C 88.339844 97.027344 88.167969 97.210938 88.03125 97.429688 C 87.878906 97.632812 87.726562 97.84375 87.617188 98.070312 C 87.488281 98.292969 87.363281 98.523438 87.277344 98.761719 C 87.167969 98.996094 87.078125 99.242188 87.003906 99.492188 C 86.835938 99.984375 86.742188 100.496094 86.660156 101.011719 C 86.59375 101.535156 86.546875 102.058594 86.5625 102.585938 " fill-opacity="1" fill-rule="nonzero"/><path fill="rgb(60.389709%, 30.979919%, 21.179199%)" d="M 89.179688 106.0625 C 89.179688 106.0625 89.082031 105.21875 89.140625 103.941406 C 89.148438 103.621094 89.195312 103.277344 89.226562 102.910156 C 89.292969 102.546875 89.324219 102.15625 89.425781 101.769531 C 89.515625 101.371094 89.617188 100.96875 89.773438 100.5625 C 89.890625 100.152344 90.109375 99.765625 90.296875 99.371094 C 90.527344 98.996094 90.769531 98.609375 91.0625 98.28125 C 91.375 97.96875 91.667969 97.628906 92.042969 97.417969 C 92.222656 97.292969 92.394531 97.175781 92.570312 97.0625 C 92.761719 96.980469 92.949219 96.902344 93.132812 96.828125 C 93.3125 96.757812 93.496094 96.683594 93.664062 96.617188 C 93.847656 96.578125 94.023438 96.546875 94.191406 96.511719 C 94.527344 96.464844 94.839844 96.367188 95.113281 96.371094 C 95.386719 96.371094 95.628906 96.371094 95.828125 96.371094 C 96.222656 96.371094 96.449219 96.371094 96.449219 96.371094 L 96.3125 97.527344 C 96.3125 97.527344 96.117188 97.511719 95.773438 97.484375 C 95.597656 97.46875 95.386719 97.453125 95.148438 97.429688 C 94.90625 97.402344 94.644531 97.464844 94.351562 97.484375 C 94.207031 97.5 94.050781 97.511719 93.898438 97.527344 C 93.746094 97.574219 93.59375 97.625 93.433594 97.675781 C 93.277344 97.71875 93.109375 97.773438 92.941406 97.824219 C 92.789062 97.910156 92.632812 97.996094 92.476562 98.085938 C 92.136719 98.234375 91.867188 98.511719 91.5625 98.757812 C 91.28125 99.023438 91.035156 99.351562 90.800781 99.671875 C 90.59375 100.027344 90.355469 100.363281 90.210938 100.742188 C 90.035156 101.109375 89.902344 101.488281 89.78125 101.859375 C 89.652344 102.230469 89.589844 102.605469 89.492188 102.953125 C 89.433594 103.308594 89.355469 103.644531 89.320312 103.960938 C 89.152344 105.210938 89.179688 106.0625 89.179688 106.0625 " fill-opacity="1" fill-rule="nonzero"/><path fill="rgb(94.119263%, 63.139343%, 46.269226%)" d="M 205.359375 103.558594 C 205.359375 112.84375 205.355469 123.546875 201.910156 133.910156 C 194.191406 157.148438 165.828125 178.675781 150.875 178.675781 C 135.699219 178.675781 107.070312 156.515625 99.503906 132.902344 C 96.285156 122.851562 96.382812 112.539062 96.382812 103.558594 C 96.382812 73.464844 101.945312 34.085938 150.875 34.085938 C 199.792969 34.085938 205.359375 73.464844 205.359375 103.558594 " fill-opacity="1" fill-rule="nonzero"/><path fill="rgb(36.079407%, 23.139954%, 21.569824%)" d="M 131.886719 141.996094 C 131.9375 142.035156 139.511719 148.167969 150.4375 148.171875 C 155.898438 148.175781 162.191406 146.625 168.714844 142.019531 L 168.042969 141.066406 C 161.703125 145.535156 155.679688 147.003906 150.4375 147.007812 C 145.199219 147.007812 140.734375 145.527344 137.582031 144.039062 C 136.003906 143.296875 134.757812 142.554688 133.910156 142 C 133.484375 141.722656 133.160156 141.492188 132.941406 141.332031 C 132.832031 141.253906 132.75 141.191406 132.699219 141.148438 L 132.636719 141.105469 L 132.621094 141.089844 L 131.886719 141.996094 " fill-opacity="1" fill-rule="nonzero"/><path fill="rgb(83.918762%, 52.159119%, 35.289001%)" d="M 149.242188 68.828125 C 137.03125 68.828125 125.953125 65.179688 116.84375 60.628906 C 118.890625 55.300781 118.835938 51.9375 118.835938 51.9375 C 131.234375 56.808594 143.292969 58.382812 153.710938 58.378906 C 172.707031 58.378906 186.210938 53.148438 186.210938 53.148438 C 186.570312 55.660156 187.542969 58.550781 188.867188 61.546875 C 180.886719 61.910156 173.289062 63.878906 173.289062 63.878906 C 164.964844 67.402344 156.882812 68.828125 149.242188 68.828125 " fill-opacity="1" fill-rule="nonzero"/><path fill="rgb(76.469421%, 45.489502%, 30.589294%)" d="M 150.902344 178.675781 C 150.90625 178.675781 150.90625 178.675781 150.910156 178.675781 C 150.90625 178.675781 150.90625 178.675781 150.902344 178.675781 M 150.929688 178.675781 C 150.933594 178.675781 150.933594 178.675781 150.9375 178.675781 C 150.933594 178.675781 150.933594 178.675781 150.929688 178.675781 M 150.964844 178.675781 C 150.964844 178.675781 150.96875 178.675781 150.96875 178.675781 C 150.96875 178.675781 150.964844 178.675781 150.964844 178.675781 M 150.992188 178.675781 C 150.996094 178.675781 150.996094 178.675781 150.996094 178.675781 C 150.996094 178.675781 150.996094 178.675781 150.992188 178.675781 M 151.019531 178.675781 C 151.023438 178.675781 151.023438 178.675781 151.027344 178.675781 C 151.023438 178.675781 151.023438 178.675781 151.019531 178.675781 M 151.054688 178.675781 C 151.058594 178.675781 151.058594 178.675781 151.058594 178.675781 C 151.058594 178.675781 151.058594 178.675781 151.054688 178.675781 M 151.082031 178.675781 C 151.082031 178.675781 151.085938 178.675781 151.089844 178.675781 C 151.085938 178.675781 151.082031 178.675781 151.082031 178.675781 M 151.117188 178.675781 C 151.117188 178.675781 151.121094 178.675781 151.121094 178.671875 C 151.121094 178.675781 151.117188 178.675781 151.117188 178.675781 M 151.144531 178.671875 C 151.144531 178.671875 151.148438 178.671875 151.152344 178.671875 C 151.148438 178.671875 151.144531 178.671875 151.144531 178.671875 M 151.171875 178.671875 C 151.175781 178.671875 151.175781 178.671875 151.179688 178.671875 C 151.175781 178.671875 151.175781 178.671875 151.171875 178.671875 M 151.207031 178.671875 C 151.207031 178.671875 151.207031 178.671875 151.210938 178.671875 C 151.207031 178.671875 151.207031 178.671875 151.207031 178.671875 M 151.234375 178.671875 C 151.238281 178.671875 151.238281 178.671875 151.242188 178.671875 C 151.238281 178.671875 151.238281 178.671875 151.234375 178.671875 M 151.296875 178.667969 C 151.300781 178.667969 151.300781 178.667969 151.304688 178.667969 C 151.300781 178.667969 151.300781 178.667969 151.296875 178.667969 M 151.328125 178.667969 C 151.332031 178.667969 151.332031 178.667969 151.335938 178.667969 C 151.332031 178.667969 151.332031 178.667969 151.328125 178.667969 M 151.359375 178.667969 C 151.363281 178.667969 151.363281 178.667969 151.363281 178.667969 C 151.363281 178.667969 151.363281 178.667969 151.359375 178.667969 M 151.390625 178.664062 C 151.390625 178.664062 151.394531 178.664062 151.398438 178.664062 C 151.394531 178.664062 151.390625 178.664062 151.390625 178.664062 M 151.417969 178.664062 C 151.421875 178.664062 151.421875 178.664062 151.421875 178.664062 C 151.421875 178.664062 151.421875 178.664062 151.417969 178.664062 M 151.453125 178.664062 C 151.457031 178.664062 151.457031 178.664062 151.457031 178.664062 C 151.457031 178.664062 151.457031 178.664062 151.453125 178.664062 M 151.484375 178.660156 C 151.484375 178.660156 151.484375 178.660156 151.488281 178.660156 C 151.484375 178.660156 151.484375 178.660156 151.484375 178.660156 M 151.546875 178.660156 L 151.546875 178.660156 " fill-opacity="1" fill-rule="nonzero"/><path fill="rgb(85.099792%, 61.178589%, 47.059631%)" d="M 186.910156 157.65625 C 187.898438 156.609375 188.855469 155.539062 189.789062 154.445312 C 189.789062 154.441406 189.792969 154.4375 189.796875 154.4375 C 188.863281 155.535156 187.902344 156.605469 186.910156 157.65625 " fill-opacity="1" fill-rule="nonzero"/><path fill="rgb(83.918762%, 52.159119%, 35.289001%)" d="M 150.875 178.675781 C 135.699219 178.675781 107.070312 156.515625 99.503906 132.902344 C 97.359375 126.21875 96.691406 119.414062 96.480469 112.96875 C 96.460938 112.34375 96.445312 111.722656 96.429688 111.105469 C 96.402344 109.6875 96.390625 108.285156 96.386719 106.910156 C 96.382812 106.570312 96.382812 106.230469 96.382812 105.894531 C 96.382812 105.648438 96.382812 105.398438 96.382812 105.148438 C 96.382812 104.617188 96.382812 104.085938 96.382812 103.558594 C 96.382812 99.777344 96.59375 95.738281 97.035156 91.59375 C 97.832031 89.273438 99.324219 86.191406 102.074219 82.351562 C 101.273438 88.039062 100.90625 93.617188 100.90625 98.652344 C 100.90625 107.636719 100.808594 117.949219 104.023438 127.996094 C 111.589844 151.613281 140.21875 173.769531 155.394531 173.769531 C 164.460938 173.769531 178.449219 165.855469 189.789062 154.445312 C 188.855469 155.539062 187.898438 156.609375 186.910156 157.65625 C 175.660156 169.601562 161.265625 178.152344 151.734375 178.652344 C 151.703125 178.652344 151.671875 178.652344 151.640625 178.652344 C 151.621094 178.65625 151.597656 178.65625 151.578125 178.65625 C 151.570312 178.65625 151.558594 178.65625 151.546875 178.660156 C 151.527344 178.660156 151.503906 178.660156 151.488281 178.660156 C 151.484375 178.660156 151.484375 178.660156 151.484375 178.660156 C 151.472656 178.660156 151.464844 178.664062 151.457031 178.664062 C 151.457031 178.664062 151.457031 178.664062 151.453125 178.664062 C 151.441406 178.664062 151.433594 178.664062 151.421875 178.664062 C 151.421875 178.664062 151.421875 178.664062 151.417969 178.664062 C 151.414062 178.664062 151.402344 178.664062 151.398438 178.664062 C 151.394531 178.664062 151.390625 178.664062 151.390625 178.664062 C 151.378906 178.664062 151.375 178.667969 151.363281 178.667969 C 151.363281 178.667969 151.363281 178.667969 151.359375 178.667969 C 151.351562 178.667969 151.34375 178.667969 151.335938 178.667969 C 151.332031 178.667969 151.332031 178.667969 151.328125 178.667969 C 151.320312 178.667969 151.3125 178.667969 151.304688 178.667969 C 151.300781 178.667969 151.300781 178.667969 151.296875 178.667969 C 151.277344 178.671875 151.261719 178.671875 151.242188 178.671875 C 151.238281 178.671875 151.238281 178.671875 151.234375 178.671875 C 151.230469 178.671875 151.21875 178.671875 151.210938 178.671875 C 151.207031 178.671875 151.207031 178.671875 151.207031 178.671875 C 151.199219 178.671875 151.1875 178.671875 151.179688 178.671875 C 151.175781 178.671875 151.175781 178.671875 151.171875 178.671875 C 151.164062 178.671875 151.160156 178.671875 151.152344 178.671875 C 151.148438 178.671875 151.144531 178.671875 151.144531 178.671875 C 151.136719 178.671875 151.125 178.671875 151.121094 178.671875 C 151.121094 178.675781 151.117188 178.675781 151.117188 178.675781 C 151.105469 178.675781 151.101562 178.675781 151.089844 178.675781 C 151.085938 178.675781 151.082031 178.675781 151.082031 178.675781 C 151.074219 178.675781 151.066406 178.675781 151.058594 178.675781 C 151.058594 178.675781 151.058594 178.675781 151.054688 178.675781 C 151.042969 178.675781 151.035156 178.675781 151.027344 178.675781 C 151.023438 178.675781 151.023438 178.675781 151.019531 178.675781 C 151.015625 178.675781 151.007812 178.675781 150.996094 178.675781 C 150.996094 178.675781 150.996094 178.675781 150.992188 178.675781 C 150.984375 178.675781 150.976562 178.675781 150.96875 178.675781 C 150.96875 178.675781 150.964844 178.675781 150.964844 178.675781 C 150.953125 178.675781 150.945312 178.675781 150.9375 178.675781 C 150.933594 178.675781 150.933594 178.675781 150.929688 178.675781 C 150.921875 178.675781 150.914062 178.675781 150.910156 178.675781 C 150.90625 178.675781 150.90625 178.675781 150.902344 178.675781 C 150.890625 178.675781 150.882812 178.675781 150.875 178.675781 " fill-opacity="1" fill-rule="nonzero"/><path fill="rgb(36.079407%, 23.139954%, 21.569824%)" d="M 109.464844 84.632812 C 109.464844 84.632812 115.691406 79.09375 121.683594 80.457031 C 127.679688 81.820312 137.003906 81.808594 139.730469 78.769531 C 139.730469 78.769531 119.421875 70.625 109.464844 84.632812 " fill-opacity="1" fill-rule="nonzero"/><path fill="rgb(36.079407%, 23.139954%, 21.569824%)" d="M 190.488281 84.632812 C 190.488281 84.632812 184.269531 79.09375 178.269531 80.457031 C 172.28125 81.820312 162.953125 81.808594 160.226562 78.769531 C 160.226562 78.769531 180.53125 70.625 190.488281 84.632812 " fill-opacity="1" fill-rule="nonzero"/><path fill="rgb(69.018555%, 34.509277%, 21.958923%)" d="M 141.167969 127.746094 C 141.167969 127.746094 141.148438 127.644531 141.125 127.445312 C 141.089844 127.246094 141.050781 126.964844 141.09375 126.566406 C 141.09375 126.363281 141.140625 126.160156 141.183594 125.929688 C 141.210938 125.691406 141.296875 125.453125 141.390625 125.195312 C 141.558594 124.675781 141.847656 124.121094 142.230469 123.5625 C 142.421875 123.28125 142.652344 123.015625 142.882812 122.726562 C 143.136719 122.46875 143.394531 122.183594 143.695312 121.941406 C 144.277344 121.425781 144.960938 120.960938 145.710938 120.5625 C 146.472656 120.183594 147.296875 119.847656 148.171875 119.648438 C 149.042969 119.410156 149.960938 119.347656 150.871094 119.3125 C 151.402344 119.34375 151.695312 119.328125 152.199219 119.398438 C 152.675781 119.453125 153.140625 119.53125 153.570312 119.644531 C 154.449219 119.839844 155.273438 120.179688 156.03125 120.558594 C 156.789062 120.960938 157.46875 121.421875 158.050781 121.9375 C 158.355469 122.179688 158.613281 122.46875 158.867188 122.722656 C 159.097656 123.011719 159.324219 123.277344 159.511719 123.5625 C 159.898438 124.117188 160.1875 124.671875 160.355469 125.195312 C 160.449219 125.449219 160.53125 125.691406 160.5625 125.929688 C 160.605469 126.160156 160.652344 126.363281 160.652344 126.5625 C 160.691406 126.945312 160.65625 127.246094 160.625 127.445312 C 160.59375 127.644531 160.578125 127.746094 160.578125 127.746094 C 160.578125 127.746094 160.546875 127.648438 160.488281 127.453125 C 160.460938 127.363281 160.425781 127.246094 160.390625 127.113281 C 160.335938 126.988281 160.269531 126.839844 160.203125 126.671875 C 160.144531 126.507812 160.035156 126.34375 159.929688 126.164062 C 159.828125 125.980469 159.707031 125.792969 159.5625 125.605469 C 159.292969 125.214844 158.914062 124.828125 158.5 124.433594 C 158.066406 124.050781 157.570312 123.679688 157.011719 123.339844 C 156.460938 122.988281 155.824219 122.710938 155.175781 122.445312 C 154.507812 122.199219 153.8125 121.984375 153.089844 121.855469 C 152.71875 121.773438 152.371094 121.746094 152.023438 121.703125 C 151.714844 121.652344 151.167969 121.664062 150.871094 121.640625 C 150.125 121.664062 149.378906 121.707031 148.660156 121.855469 C 147.929688 121.980469 147.234375 122.199219 146.566406 122.441406 C 145.917969 122.707031 145.28125 122.984375 144.730469 123.335938 C 144.171875 123.679688 143.671875 124.046875 143.246094 124.433594 C 142.828125 124.828125 142.449219 125.214844 142.183594 125.605469 C 142.035156 125.792969 141.910156 125.980469 141.8125 126.160156 C 141.707031 126.34375 141.597656 126.511719 141.546875 126.671875 C 141.472656 126.832031 141.410156 126.976562 141.355469 127.101562 C 141.316406 127.242188 141.28125 127.355469 141.253906 127.453125 C 141.195312 127.648438 141.167969 127.746094 141.167969 127.746094 " fill-opacity="1" fill-rule="nonzero"/><path fill="rgb(67.83905%, 39.608765%, 26.669312%)" d="M 144.5625 152.097656 C 144.5625 152.097656 150.976562 155.164062 157.394531 152.097656 C 157.394531 152.097656 151.835938 162.058594 144.5625 152.097656 " fill-opacity="1" fill-rule="nonzero"/><path fill="rgb(83.918762%, 52.159119%, 35.289001%)" d="M 151.109375 131.363281 C 145.359375 131.363281 141.167969 128.964844 141.167969 128.964844 C 142.84375 123.105469 148.824219 122.679688 150.523438 122.679688 C 150.8125 122.679688 150.976562 122.691406 150.976562 122.691406 C 151.089844 122.6875 151.203125 122.683594 151.3125 122.683594 C 158.164062 122.683594 160.578125 128.964844 160.578125 128.964844 C 157.253906 130.761719 153.988281 131.363281 151.109375 131.363281 " fill-opacity="1" fill-rule="nonzero"/><path fill="rgb(36.079407%, 23.139954%, 21.569824%)" d="M 96.203125 96.890625 C 96.203125 96.890625 77.113281 50.492188 102.210938 26.8125 C 102.210938 26.8125 98.433594 7.640625 121.582031 4.226562 C 150.363281 -0.0195312 210.40625 12.824219 211.589844 44.316406 C 212.804688 76.414062 205.753906 96.890625 205.753906 96.890625 C 205.753906 96.890625 205.171875 87.269531 200.21875 80.523438 C 195.257812 73.777344 187.378906 61.402344 186.210938 53.148438 C 186.210938 53.148438 153.839844 65.6875 118.835938 51.9375 C 118.835938 51.9375 119.007812 62.792969 106.863281 76.414062 C 94.714844 90.035156 96.203125 96.890625 96.203125 96.890625 " fill-opacity="1" fill-rule="nonzero"/><path fill="rgb(79.998779%, 70.199585%, 66.268921%)" d="M 211.589844 44.316406 C 211.589844 44.304688 211.589844 44.292969 211.589844 44.285156 C 211.589844 44.292969 211.589844 44.304688 211.589844 44.316406 M 211.585938 44.265625 C 211.585938 44.265625 211.585938 44.257812 211.585938 44.253906 C 211.585938 44.257812 211.585938 44.261719 211.585938 44.265625 " fill-opacity="1" fill-rule="nonzero"/><path fill="rgb(43.139648%, 28.62854%, 26.269531%)" d="M 192.953125 48.621094 C 158.441406 48.621094 126.390625 32.234375 126.390625 32.234375 C 131.855469 33.234375 137.390625 33.664062 142.882812 33.664062 C 163.921875 33.664062 184.328125 27.289062 198.101562 21.734375 C 206.015625 27.734375 211.226562 35.226562 211.585938 44.253906 C 211.585938 44.257812 211.585938 44.265625 211.585938 44.265625 C 211.585938 44.273438 211.589844 44.277344 211.589844 44.285156 C 211.589844 44.292969 211.589844 44.304688 211.589844 44.316406 C 211.621094 45.164062 211.644531 46.003906 211.667969 46.832031 C 205.460938 48.089844 199.171875 48.621094 192.953125 48.621094 " fill-opacity="1" fill-rule="nonzero"/><path fill="rgb(36.079407%, 23.139954%, 21.569824%)" d="M 96.382812 84.632812 C 96.382812 84.632812 93.644531 154.570312 143.085938 168.183594 C 143.085938 168.183594 144.402344 165.273438 144.5625 160.949219 C 144.5625 160.949219 149.480469 163.835938 157.394531 160.949219 C 157.394531 160.949219 158.636719 168.894531 160.226562 168.734375 C 161.808594 168.570312 206.753906 148.480469 204.503906 85.804688 L 205.570312 85.804688 C 205.570312 85.804688 217.425781 178.675781 150.488281 183.152344 C 150.488281 183.152344 85.390625 180.433594 93.222656 83.011719 L 96.382812 84.632812 " fill-opacity="1" fill-rule="nonzero"/><path fill="rgb(36.079407%, 23.139954%, 21.569824%)" d="M 149.921875 132.058594 C 146.007812 130.757812 117.363281 122.488281 121.171875 159.824219 L 124.9375 160.949219 C 124.9375 160.949219 123.96875 141.003906 149.921875 136.566406 C 175.871094 141.003906 174.902344 160.949219 174.902344 160.949219 L 178.671875 159.824219 C 182.476562 122.488281 153.835938 130.757812 149.921875 132.058594 " fill-opacity="1" fill-rule="nonzero"/><path fill="rgb(12.939453%, 10.198975%, 10.5896%)" d="M 136.5 104.886719 C 136.5 109.605469 134.382812 113.441406 131.773438 113.441406 C 129.160156 113.441406 127.046875 109.605469 127.046875 104.886719 C 127.046875 100.160156 129.160156 96.324219 131.773438 96.324219 C 134.382812 96.324219 136.5 100.160156 136.5 104.886719 " fill-opacity="1" fill-rule="nonzero"/><path fill="rgb(12.939453%, 10.198975%, 10.5896%)" d="M 174.914062 104.886719 C 174.914062 109.605469 172.792969 113.441406 170.183594 113.441406 C 167.574219 113.441406 165.457031 109.605469 165.457031 104.886719 C 165.457031 100.160156 167.574219 96.324219 170.183594 96.324219 C 172.792969 96.324219 174.914062 100.160156 174.914062 104.886719 " fill-opacity="1" fill-rule="nonzero"/></svg>